<?xml version="1.0" encoding="UTF-8" standalone="no"?><!DOCTYPE svg PUBLIC "-//W3C//DTD SVG 1.1//EN" "http://www.w3.org/Graphics/SVG/1.1/DTD/svg11.dtd"><svg width="100%" height="100%" viewBox="0 0 228 207" version="1.1" xmlns="http://www.w3.org/2000/svg" xmlns:xlink="http://www.w3.org/1999/xlink" xml:space="preserve" xmlns:serif="http://www.serif.com/" style="fill-rule:evenodd;clip-rule:evenodd;stroke-linejoin:round;stroke-miterlimit:2;"><g id="logo_w"><path d="M66.103,132.446l0,26.965l6.67,0c2.796,0 5.063,-2.266 5.063,-5.062l0,-21.903l19.142,0l0,73.484l-19.142,0l0,-30.258c0,0 -3.437,0 -6.591,0c-1.364,0 -2.672,0.542 -3.636,1.506c-0.964,0.965 -1.506,2.273 -1.506,3.637l0,25.115l-19.143,0l0,-10.613c-1.054,2.234 -2.507,4.084 -4.359,5.551c-4.301,3.408 -10.52,5.111 -18.659,5.111c-3.837,0 -7.228,-0.314 -10.172,-0.942c-2.945,-0.629 -5.426,-1.721 -7.444,-3.276c-2.018,-1.555 -3.556,-3.589 -4.615,-6.103c-1.059,-2.515 -1.588,-5.624 -1.588,-9.33l0,0c0,-1.37 1.111,-2.481 2.481,-2.481l13.696,0c0.448,0 0.877,0.178 1.193,0.494c0.317,0.317 0.495,0.746 0.495,1.193l0,0c0,3.044 0.562,5.178 1.687,6.402c1.125,1.224 2.58,1.836 4.367,1.836c1.919,0 3.391,-0.662 4.416,-1.985c1.026,-1.323 1.539,-2.944 1.539,-4.863c0,-2.316 -0.712,-4.152 -2.134,-5.508c-1.423,-1.357 -3.209,-2.515 -5.36,-3.474c-2.15,-0.96 -4.482,-1.935 -6.997,-2.928c-2.514,-0.992 -4.846,-2.283 -6.997,-3.871c-2.15,-1.588 -3.936,-3.672 -5.359,-6.252c-1.423,-2.581 -2.134,-5.955 -2.134,-10.123c0,-7.213 1.919,-12.704 5.757,-16.476c3.837,-3.771 9.66,-5.657 17.467,-5.657c8.072,0 13.911,1.737 17.517,5.211c2.902,2.795 4.636,6.929 5.203,12.401l0,-17.801l19.143,0Zm-19.143,26.471c0,-1.179 -0.469,-2.31 -1.303,-3.145c-0.834,-0.834 -1.965,-1.302 -3.145,-1.302l-10.927,0c-0.448,0 -0.877,-0.178 -1.193,-0.494c-0.317,-0.317 -0.495,-0.746 -0.495,-1.193l0,0c0,-2.118 -0.43,-3.921 -1.29,-5.409c-0.86,-1.489 -2.183,-2.234 -3.97,-2.234c-1.985,0 -3.44,0.646 -4.367,1.936c-0.926,1.29 -1.389,2.729 -1.389,4.317c0,2.316 0.744,4.152 2.233,5.508c1.489,1.357 3.358,2.531 5.607,3.524c2.25,0.992 4.665,2.001 7.245,3.027c2.581,1.025 4.996,2.365 7.246,4.019c2.249,1.654 4.118,3.821 5.607,6.501c0.048,0.086 0.095,0.173 0.141,0.26l0,-15.315Z" style="fill:#fff;fill-rule:nonzero;"/><rect x="103.407" y="132.496" width="19.143" height="73.484" style="fill:#fff;fill-rule:nonzero;"/><path d="M188.084,205.979l-24.73,0l-11.218,-25.626l-4.014,6.175l0,19.451l-19.143,0l0,-73.483l19.143,0l0,27.994c0,0.054 0.021,0.106 0.06,0.145c0.039,0.039 0.091,0.06 0.145,0.06l0.001,0l14.202,-28.199l20.378,0l-18.525,32.11c0,0 5.103,10.156 7.696,15.316c0.226,0.45 0.71,0.711 1.21,0.653c0.501,-0.058 0.912,-0.422 1.029,-0.912c2.653,-11.077 11.296,-47.167 11.296,-47.167l24.083,0l17.908,73.483l-20.378,0c0,0 -0.953,-6.27 -1.528,-10.055c-0.246,-1.616 -1.635,-2.809 -3.269,-2.809l-9.549,0c-1.634,0 -3.023,1.193 -3.268,2.809l-1.529,10.055Zm9.675,-58.457l-0.206,0l-5.249,31.184l10.704,0l-5.249,-31.184Z" style="fill:#fff;fill-rule:nonzero;"/><path d="M128.294,120.103c0,0 -1.931,-72.123 14.888,-92.236c19.372,-23.166 49.405,-27.725 49.405,-27.725l0,22.146c0,0 -33.485,2.397 -44.914,32.383c-11.37,29.832 -10.242,65.432 -10.242,65.432l-9.137,0Z" style="fill:#fff;"/><path d="M98.474,120.103c0,0 1.931,-72.123 -14.888,-92.236c-19.372,-23.166 -49.405,-27.725 -49.405,-27.725l0,22.146c0,0 33.485,2.397 44.914,32.383c11.37,29.832 10.242,65.432 10.242,65.432l9.137,0Z" style="fill:#fff;"/><path d="M122.924,37.215c-3.454,19.993 0,82.888 0,82.888l-19.08,0c0,0 3.454,-62.895 0,-82.888c-2.411,-13.952 -20.727,-37.073 -20.727,-37.073l60.534,0c0,0 -18.316,23.121 -20.727,37.073Z" style="fill:#fff;"/></g></svg>