<?xml version="1.0" encoding="UTF-8" standalone="no"?><!DOCTYPE svg PUBLIC "-//W3C//DTD SVG 1.1//EN" "http://www.w3.org/Graphics/SVG/1.1/DTD/svg11.dtd"><svg width="100%" height="100%" viewBox="0 0 120 39" version="1.1" xmlns="http://www.w3.org/2000/svg" xmlns:xlink="http://www.w3.org/1999/xlink" xml:space="preserve" xmlns:serif="http://www.serif.com/" style="fill-rule:evenodd;clip-rule:evenodd;stroke-linejoin:round;stroke-miterlimit:2;"><g id="logo_txt_d"><path d="M34.593,0.043l0,14.092l3.486,0c1.461,0 2.645,-1.185 2.645,-2.646l0,-11.446l10.004,0l0,38.403l-10.004,0l0,-15.813c0,0 -1.796,0 -3.444,0c-0.713,0 -1.396,0.283 -1.9,0.787c-0.504,0.504 -0.787,1.188 -0.787,1.9l0,13.126l-10.004,0l0,-5.546c-0.551,1.167 -1.311,2.134 -2.278,2.9c-2.248,1.781 -5.498,2.672 -9.751,2.672c-2.006,0 -3.778,-0.165 -5.317,-0.493c-1.538,-0.329 -2.835,-0.899 -3.89,-1.712c-1.054,-0.812 -1.858,-1.876 -2.412,-3.19c-0.553,-1.314 -0.829,-2.939 -0.829,-4.875l0,0c0,-0.716 0.58,-1.297 1.296,-1.297l7.158,0c0.234,0 0.458,0.093 0.623,0.258c0.166,0.166 0.259,0.39 0.259,0.624l0,0c0,1.591 0.293,2.706 0.881,3.345c0.588,0.64 1.349,0.96 2.282,0.96c1.003,0 1.773,-0.346 2.309,-1.037c0.536,-0.692 0.803,-1.539 0.803,-2.542c0,-1.21 -0.371,-2.17 -1.115,-2.879c-0.743,-0.708 -1.677,-1.313 -2.8,-1.815c-1.124,-0.501 -2.343,-1.011 -3.657,-1.53c-1.314,-0.519 -2.533,-1.193 -3.657,-2.023c-1.123,-0.83 -2.057,-1.919 -2.801,-3.267c-0.743,-1.349 -1.115,-3.112 -1.115,-5.291c0,-3.769 1.003,-6.639 3.009,-8.61c2.005,-1.971 5.048,-2.956 9.128,-2.956c4.219,0 7.27,0.908 9.155,2.723c1.516,1.461 2.422,3.621 2.719,6.481l0,-9.303l10.004,0Zm-10.004,15.957c0,-2.456 -1.992,-4.447 -4.448,-4.447c-1.856,0 -3.588,0 -3.588,0c-0.234,0 -0.458,-0.093 -0.623,-0.259c-0.165,-0.165 -0.258,-0.389 -0.258,-0.623l0,0c0,-1.107 -0.225,-2.049 -0.675,-2.827c-0.449,-0.778 -1.141,-1.167 -2.074,-1.167c-1.038,0 -1.798,0.337 -2.282,1.012c-0.485,0.674 -0.727,1.426 -0.727,2.256c0,1.21 0.389,2.169 1.167,2.878c0.778,0.709 1.755,1.323 2.931,1.842c1.176,0.518 2.438,1.046 3.786,1.582c1.349,0.536 2.611,1.236 3.786,2.1c1.176,0.865 2.153,1.997 2.931,3.397c0.025,0.045 0.049,0.091 0.074,0.136l0,-5.88Z" style="fill:#20232a;fill-rule:nonzero;"/><rect x="54.088" y="0.069" width="10.004" height="38.403" style="fill:#20232a;fill-rule:nonzero;"/><path d="M98.34,38.472l-12.924,0l-5.863,-13.393l-2.097,3.227l0,10.166l-10.004,0l0,-38.403l10.004,0l0,14.63c0,0.028 0.011,0.055 0.031,0.076c0.02,0.02 0.048,0.031 0.076,0.031l0,0l7.423,-14.737l10.649,0l-9.681,16.781c0,0 1.909,3.8 3.318,6.603c0.226,0.45 0.709,0.711 1.21,0.653c0.501,-0.058 0.912,-0.422 1.029,-0.912c1.679,-7.01 5.538,-23.125 5.538,-23.125l12.586,0l9.359,38.403l-10.65,0c0,0 -0.498,-3.277 -0.799,-5.256c-0.128,-0.844 -0.854,-1.468 -1.708,-1.468l-4.99,0c-0.854,0 -1.58,0.624 -1.708,1.468l-0.799,5.256Zm5.056,-30.55l-0.108,0l-2.743,16.296l5.594,0l-2.743,-16.296Z" style="fill:#20232a;fill-rule:nonzero;"/></g></svg>