<?xml version="1.0" encoding="UTF-8" standalone="no"?><!DOCTYPE svg PUBLIC "-//W3C//DTD SVG 1.1//EN" "http://www.w3.org/Graphics/SVG/1.1/DTD/svg11.dtd"><svg width="100%" height="100%" viewBox="0 0 228 207" version="1.1" xmlns="http://www.w3.org/2000/svg" xmlns:xlink="http://www.w3.org/1999/xlink" xml:space="preserve" xmlns:serif="http://www.serif.com/" style="fill-rule:evenodd;clip-rule:evenodd;stroke-linejoin:round;stroke-miterlimit:2;"><g id="logo_d"><path d="M66.062,132.403l0,26.964l6.67,0c2.796,0 5.062,-2.266 5.062,-5.062l0,-21.902l19.143,0l0,73.484l-19.143,0l0,-30.258c0,0 -3.437,0 -6.59,0c-1.364,0 -2.672,0.541 -3.636,1.506c-0.965,0.964 -1.506,2.272 -1.506,3.636l0,25.116l-19.143,0l0,-10.613c-1.055,2.233 -2.508,4.084 -4.359,5.551c-4.301,3.407 -10.52,5.111 -18.659,5.111c-3.837,0 -7.228,-0.314 -10.173,-0.943c-2.944,-0.629 -5.425,-1.72 -7.443,-3.275c-2.018,-1.555 -3.557,-3.59 -4.615,-6.104c-1.059,-2.514 -1.588,-5.624 -1.588,-9.329l0,0c0,-1.371 1.111,-2.481 2.481,-2.481l13.696,0c0.448,0 0.877,0.177 1.193,0.494c0.317,0.316 0.494,0.745 0.494,1.193l0,0c0,3.043 0.563,5.177 1.688,6.401c1.124,1.224 2.58,1.836 4.366,1.836c1.919,0 3.391,-0.661 4.417,-1.985c1.026,-1.323 1.538,-2.944 1.538,-4.863c0,-2.316 -0.711,-4.152 -2.134,-5.508c-1.422,-1.356 -3.209,-2.514 -5.359,-3.474c-2.15,-0.959 -4.483,-1.935 -6.997,-2.928c-2.514,-0.992 -4.846,-2.282 -6.997,-3.87c-2.15,-1.588 -3.937,-3.672 -5.359,-6.253c-1.423,-2.58 -2.134,-5.955 -2.134,-10.123c0,-7.212 1.919,-12.704 5.756,-16.475c3.838,-3.772 9.66,-5.657 17.468,-5.657c8.072,0 13.911,1.736 17.517,5.21c2.902,2.795 4.636,6.929 5.203,12.401l0,-17.8l19.143,0Zm-19.143,26.471c0,-1.18 -0.469,-2.311 -1.303,-3.145c-0.834,-0.834 -1.965,-1.303 -3.145,-1.303l-10.928,0c-0.447,0 -0.876,-0.178 -1.193,-0.494c-0.316,-0.316 -0.494,-0.746 -0.494,-1.193l0,0c0,-2.117 -0.43,-3.92 -1.29,-5.409c-0.86,-1.489 -2.184,-2.233 -3.97,-2.233c-1.985,0 -3.441,0.645 -4.367,1.935c-0.926,1.29 -1.389,2.73 -1.389,4.317c0,2.316 0.744,4.152 2.233,5.509c1.488,1.356 3.358,2.531 5.607,3.523c2.25,0.993 4.665,2.002 7.245,3.027c2.581,1.026 4.996,2.366 7.245,4.02c2.25,1.654 4.119,3.821 5.608,6.5c0.048,0.086 0.095,0.173 0.141,0.261l0,-15.315Z" style="fill:#20232a;fill-rule:nonzero;"/><rect x="103.366" y="132.452" width="19.143" height="73.484" style="fill:#20232a;fill-rule:nonzero;"/><path d="M188.043,205.936l-24.731,0l-11.218,-25.627l-4.014,6.175l0,19.452l-19.142,0l0,-73.484l19.142,0l0,27.994c0,0.055 0.022,0.107 0.061,0.145c0.038,0.039 0.091,0.061 0.145,0.061l0,0l14.203,-28.2l20.378,0l-18.525,32.111c0,0 5.103,10.156 7.696,15.315c0.226,0.451 0.709,0.712 1.21,0.654c0.5,-0.058 0.911,-0.423 1.029,-0.913c2.652,-11.076 11.296,-47.167 11.296,-47.167l24.083,0l17.908,73.484l-20.378,0c0,0 -0.953,-6.27 -1.528,-10.056c-0.246,-1.615 -1.635,-2.809 -3.269,-2.809l-9.549,0c-1.634,0 -3.023,1.194 -3.268,2.809l-1.529,10.056Zm9.674,-58.458l-0.205,0l-5.249,31.184l10.703,0l-5.249,-31.184Z" style="fill:#20232a;fill-rule:nonzero;"/><path d="M128.253,120.059c0,0 -1.931,-72.123 14.888,-92.236c19.372,-23.166 49.405,-27.725 49.405,-27.725l0,22.146c0,0 -33.485,2.397 -44.914,32.384c-11.37,29.832 -10.242,65.431 -10.242,65.431l-9.137,0Z" style="fill:#20232a;"/><path d="M98.432,120.059c0,0 1.932,-72.123 -14.887,-92.236c-19.372,-23.166 -49.405,-27.725 -49.405,-27.725l0,22.146c0,0 33.485,2.397 44.914,32.384c11.369,29.832 10.242,65.431 10.242,65.431l9.136,0Z" style="fill:#20232a;"/><path d="M122.883,37.171c-3.455,19.994 0,82.888 0,82.888l-19.08,0c0,0 3.454,-62.894 0,-82.888c-2.411,-13.951 -20.727,-37.073 -20.727,-37.073l60.534,0c0,0 -18.317,23.122 -20.727,37.073Z" style="fill:#20232a;"/></g></svg>