<?xml version="1.0" encoding="UTF-8" standalone="no"?><!DOCTYPE svg PUBLIC "-//W3C//DTD SVG 1.1//EN" "http://www.w3.org/Graphics/SVG/1.1/DTD/svg11.dtd"><svg width="100%" height="100%" viewBox="0 0 79 60" version="1.1" xmlns="http://www.w3.org/2000/svg" xmlns:xlink="http://www.w3.org/1999/xlink" xml:space="preserve" xmlns:serif="http://www.serif.com/" style="fill-rule:evenodd;clip-rule:evenodd;stroke-linejoin:round;stroke-miterlimit:2;"><g id="logo_img_d"><path d="M46.842,59.526c0,0 -0.956,-35.722 7.374,-45.684c9.595,-11.475 24.471,-13.733 24.471,-13.733l0,10.969c0,0 -16.585,1.187 -22.246,16.04c-5.632,14.776 -5.073,32.408 -5.073,32.408l-4.526,0Z" style="fill:#20232a;"/><path d="M32.072,59.526c0,0 0.957,-35.722 -7.374,-45.684c-9.595,-11.475 -24.471,-13.733 -24.471,-13.733l0,10.969c0,0 16.586,1.187 22.247,16.04c5.631,14.776 5.073,32.408 5.073,32.408l4.525,0Z" style="fill:#20232a;"/><path d="M44.182,18.472c-1.711,9.902 0,41.054 0,41.054l-9.45,0c0,0 1.711,-31.152 0,-41.054c-1.194,-6.911 -10.266,-18.363 -10.266,-18.363l29.983,0c0,0 -9.073,11.452 -10.267,18.363Z" style="fill:#20232a;"/></g></svg>