<?xml version="1.0" encoding="UTF-8" standalone="no"?><!DOCTYPE svg PUBLIC "-//W3C//DTD SVG 1.1//EN" "http://www.w3.org/Graphics/SVG/1.1/DTD/svg11.dtd"><svg width="100%" height="100%" viewBox="0 0 79 60" version="1.1" xmlns="http://www.w3.org/2000/svg" xmlns:xlink="http://www.w3.org/1999/xlink" xml:space="preserve" xmlns:serif="http://www.serif.com/" style="fill-rule:evenodd;clip-rule:evenodd;stroke-linejoin:round;stroke-miterlimit:2;"><g id="logo_img_w"><path d="M46.655,59.55c0,0 -0.957,-35.723 7.374,-45.685c9.595,-11.474 24.471,-13.732 24.471,-13.732l0,10.969c0,0 -16.586,1.187 -22.247,16.04c-5.631,14.776 -5.073,32.408 -5.073,32.408l-4.525,0Z" style="fill:#fff;"/><path d="M31.885,59.55c0,0 0.956,-35.723 -7.374,-45.685c-9.595,-11.474 -24.471,-13.732 -24.471,-13.732l0,10.969c0,0 16.585,1.187 22.246,16.04c5.632,14.776 5.073,32.408 5.073,32.408l4.526,0Z" style="fill:#fff;"/><path d="M43.995,18.495c-1.711,9.903 0,41.055 0,41.055l-9.45,0c0,0 1.711,-31.152 0,-41.055c-1.194,-6.91 -10.267,-18.362 -10.267,-18.362l29.983,0c0,0 -9.072,11.452 -10.266,18.362Z" style="fill:#fff;"/></g></svg>