<?xml version="1.0" standalone="no"?><!DOCTYPE svg PUBLIC "-//W3C//DTD SVG 1.1//EN" "http://www.w3.org/Graphics/SVG/1.1/DTD/svg11.dtd"><svg t="1572174447986" class="icon" viewBox="0 0 1024 1024" version="1.1" xmlns="http://www.w3.org/2000/svg" p-id="6788" xmlns:xlink="http://www.w3.org/1999/xlink" width="200" height="200"><defs><style type="text/css"></style></defs><path d="M947.41333333 742.18666667h-18.02666666V170.56c0-23.57333333-19.09333333-42.66666667-42.66666667-42.66666667H554.77333333v-51.2c0-23.46666667-19.2-42.66666667-42.66666666-42.66666666s-42.66666667 19.2-42.66666667 42.66666666v51.2H135.78666667c-23.57333333 0-42.66666667 19.09333333-42.66666667 42.66666667v571.62666667h-16.10666667c-23.46666667 0-42.66666667 19.2-42.66666666 42.66666666s19.2 42.66666667 42.66666666 42.66666667h56.64c0.74666667 0 1.49333333 0.10666667 2.24 0.10666667h166.61333334l-56.32 97.49333333c-11.73333333 20.37333333-4.69333333 46.50666667 15.57333333 58.24 20.37333333 11.73333333 46.50666667 4.69333333 58.24-15.57333333L398.4 832c0.85333333-1.38666667 1.49333333-2.88 2.13333333-4.37333333H469.33333333v119.36c0 23.46666667 19.2 42.66666667 42.66666667 42.66666666s42.66666667-19.2 42.66666667-42.66666666V827.62666667h68.8c0.64 1.49333333 1.38666667 2.88 2.13333333 4.37333333L704 967.78666667c11.73333333 20.37333333 37.97333333 27.30666667 58.24 15.57333333 20.37333333-11.73333333 27.30666667-37.97333333 15.57333333-58.24l-56.32-97.49333333h165.01333334c0.74666667 0 1.49333333 0 2.24-0.10666667H947.2c23.46666667 0 42.66666667-19.2 42.66666667-42.66666667 0.21333333-23.46666667-18.98666667-42.66666667-42.45333334-42.66666666zM178.45333333 213.22666667h665.6v528.96h-665.6V213.22666667z" p-id="6789" fill="#ffffff"></path></svg>