<?xml version="1.0" standalone="no"?><!DOCTYPE svg PUBLIC "-//W3C//DTD SVG 1.1//EN" "http://www.w3.org/Graphics/SVG/1.1/DTD/svg11.dtd"><svg t="1572174479931" class="icon" viewBox="0 0 1024 1024" version="1.1" xmlns="http://www.w3.org/2000/svg" p-id="7715" xmlns:xlink="http://www.w3.org/1999/xlink" width="200" height="200"><defs><style type="text/css"></style></defs><path d="M765.957992 507.111666c1.238201-14.893198-3.576455-30.231535-14.461363-41.650609L504.151241 205.864648c-19.546172-20.506033-51.190893-20.506033-70.686922 0l-70.715575 74.175373-106.096387-111.306039c-9.748015-10.226922-25.545816-10.226922-35.342949 0-9.748015 10.279111-9.748015 26.852578 0 37.078477L327.401702 317.115428 150.625556 502.539534c-19.600407 20.506033-19.600407 53.651944 0 74.156954L398.070204 836.241732c19.547195 20.558222 51.090609 20.558222 70.686922 0l282.739503-296.623721C760.137427 530.554588 764.999155 518.976902 765.957992 507.111666zM221.358527 502.539534l141.394311-148.33642 88.357374 92.696192c9.749038 10.222829 25.594935 10.222829 35.343973 0 9.748015-10.227945 9.748015-26.851555 0-37.0795l-88.357374-92.696192 70.709435-74.181513 247.39553 259.59641L221.358527 502.538511z" p-id="7716" fill="#ffffff"></path><path d="M887.019209 748.871849c-5.251607-55.960523-99.981109-209.777771-99.981109-209.777771s-91.929736 148.887982-99.978039 209.777771c-13.749142 103.891162 49.989531 116.110461 99.978039 116.110461C837.026608 864.983333 896.768247 853.287967 887.019209 748.871849z" p-id="7717" fill="#ffffff"></path></svg>