<?xml version="1.0" standalone="no"?><!DOCTYPE svg PUBLIC "-//W3C//DTD SVG 1.1//EN" "http://www.w3.org/Graphics/SVG/1.1/DTD/svg11.dtd"><svg t="1572174391950" class="icon" viewBox="0 0 1024 1024" version="1.1" xmlns="http://www.w3.org/2000/svg" p-id="5980" xmlns:xlink="http://www.w3.org/1999/xlink" width="200" height="200"><defs><style type="text/css"></style></defs><path d="M38.30784 436.992l387.3792-387.3792a20.48 20.48 0 0 1 28.96384 0l270.44352 270.4384-416.34304 416.34304-270.4384-270.4384a20.48 20.48 0 0 1 0-28.96896zM831.10912 454.84544l-387.3792 387.3792a20.48 20.48 0 0 1-28.96384 0l-73.1648-73.1648 416.34304-416.34304 73.1648 73.1648a20.48 20.48 0 0 1 0 28.96384z" p-id="5981" fill="#ffffff"></path><path d="M746.9568 538.9824c-1.3824 4.4544-72.2944 86.6816 5.12 159.3856a653.7728 653.7728 0 0 0 133.0176 95.232l0.9728 0.6656 1.0752 0.4608c40.96 19.2512 69.3248 39.0144 80.896 49.9712 32.1024 30.208 31.6416 80.384-1.1776 111.8208s-85.76 32.512-117.76 2.304c-11.6736-10.9056-32.8192-37.4272-53.5552-76.2368l-0.6144-1.024-0.5632-0.9216a631.9616 631.9616 0 0 0-101.5296-124.9792c-77.4144-72.7552-139.3152-20.48-143.0016-19.2" p-id="5982" fill="#ffffff"></path></svg>