<?xml version="1.0" standalone="no"?><!DOCTYPE svg PUBLIC "-//W3C//DTD SVG 1.1//EN" "http://www.w3.org/Graphics/SVG/1.1/DTD/svg11.dtd"><svg t="1572174560559" class="icon" viewBox="0 0 1024 1024" version="1.1" xmlns="http://www.w3.org/2000/svg" p-id="9273" xmlns:xlink="http://www.w3.org/1999/xlink" width="200" height="200"><defs><style type="text/css"></style></defs><path d="M0 127.616C0 57.152 57.28 0 127.616 0h768.768C966.848 0 1024 57.28 1024 127.616v768.768A127.68 127.68 0 0 1 896.384 1024H127.616A127.68 127.68 0 0 1 0 896.384V127.616z m64 64.768v639.232C64 902.592 121.472 960 192.384 960h639.232A128.32 128.32 0 0 0 960 831.616V192.384A128.32 128.32 0 0 0 831.616 64H192.384A128.32 128.32 0 0 0 64 192.384zM471.04 655.36V389.12h-102.4c0 24.576-16.384 40.96-40.96 40.96s-40.96-16.384-40.96-40.96v-40.96c0-24.576 16.384-40.96 40.96-40.96a51.2 51.2 0 0 1 7.424 0.512 35.712 35.712 0 0 1 6.208-0.512h341.376c2.112 0 4.224 0.192 6.208 0.512a51.2 51.2 0 0 1 7.424-0.512c24.576 0 40.96 16.384 40.96 40.96v40.96c0 24.576-16.384 40.96-40.96 40.96s-40.96-16.384-40.96-40.96h-102.4v266.24c24.576 0 40.96 16.384 40.96 40.96s-16.384 40.96-40.96 40.96h-81.92c-24.576 0-40.96-16.384-40.96-40.96s16.384-40.96 40.96-40.96z" p-id="9274" fill="#ffffff"></path></svg>